<?xml version="1.0"?>
<svg width="80" height="30" xmlns="http://www.w3.org/2000/svg" xmlns:svg="http://www.w3.org/2000/svg" xmlns:xlink="http://www.w3.org/1999/xlink" version="1.0">
 <metadata id="metadata2193">image/svg+xml</metadata>
 <defs id="defs4">
  <linearGradient id="linearGradient2795">
   <stop id="stop2797" offset="0" stop-color="#b8b8b8" stop-opacity="0.5"/>
   <stop id="stop2799" offset="1" stop-color="#7f7f7f" stop-opacity="0"/>
  </linearGradient>
  <linearGradient id="linearGradient4671">
   <stop id="stop4673" offset="0" stop-color="#ffd43b"/>
   <stop id="stop4675" offset="1" stop-color="#ffe873"/>
  </linearGradient>
  <linearGradient id="linearGradient4689">
   <stop id="stop4691" offset="0" stop-color="#5a9fd4"/>
   <stop id="stop4693" offset="1" stop-color="#306998"/>
  </linearGradient>
  <linearGradient id="linearGradient1475" x1="0.5" x2="0.23" xlink:href="#linearGradient4671" y1="0.82" y2="0.45"/>
  <linearGradient id="linearGradient1478" x1="0" x2="0.75" xlink:href="#linearGradient4689" y1="0" y2="0.64"/>
  <radialGradient cx="61.52" cy="132.29" fx="61.52" fy="132.29" gradientTransform="matrix(1.8493389433660448e-9,-0.018822859972715378,0.11151385775739264,2.974306489988976e-8,7.873552702081724,20.524578094482422)" gradientUnits="userSpaceOnUse" id="radialGradient1480" r="29.04" xlink:href="#linearGradient2795"/>
 </defs>
 <g class="layer">
  <title>Layer 1</title>
  <g id="g2303">
   <path d="m35.65,13.7c0,-1.14 -0.44,-1.73 -1.32,-1.76c-0.35,-0.01 -0.69,0.03 -1.02,0.12c-0.27,0.07 -0.44,0.14 -0.54,0.21l0,2.73c0.57,0.26 1.06,0.38 1.5,0.36c0.92,-0.05 1.38,-0.6 1.38,-1.67l0,0l-0.01,0.01zm1.08,0.05c0,0.58 -0.18,1.06 -0.55,1.45c-0.42,0.44 -0.98,0.66 -1.71,0.67c-0.55,0.02 -1.12,-0.11 -1.7,-0.38l0,2.48l-0.95,-0.25l0,-5.5c0.15,-0.14 0.36,-0.26 0.59,-0.36c0.57,-0.24 1.25,-0.36 2.04,-0.37l0.01,0.01c0.74,-0.01 1.29,0.22 1.7,0.67c0.37,0.41 0.55,0.95 0.55,1.6l0.01,-0.01z" fill="#646464" id="path46"/>
   <path d="m42.49,15.38c0,0.78 -0.1,1.32 -0.31,1.62c-0.21,0.3 -0.61,0.54 -1.21,0.72c-0.48,0.14 -1,0.22 -1.56,0.23l-0.15,-0.44c0.57,-0.06 0.97,-0.11 1.2,-0.17c0.45,-0.11 0.77,-0.29 0.95,-0.53c0.14,-0.19 0.21,-0.56 0.21,-1.1l0,-0.18c-0.65,0.22 -1.32,0.32 -2.03,0.32c-0.46,0 -0.88,-0.11 -1.22,-0.32c-0.39,-0.23 -0.59,-0.53 -0.59,-0.9l0,-2.9l0.95,-0.24l0,2.93c0,0.32 0.14,0.55 0.4,0.72c0.28,0.17 0.62,0.25 1.05,0.24c0.43,-0.01 0.9,-0.13 1.38,-0.37l0,-3.41l0.95,0l0,3.79l0,0l-0.01,-0.01z" fill="#646464" id="path48"/>
   <path d="m46.18,15.83c-0.12,0.01 -0.22,0.01 -0.31,0.01c-0.53,0 -0.95,-0.1 -1.25,-0.28c-0.29,-0.19 -0.44,-0.45 -0.44,-0.78l0,-2.75l-0.65,0l0,-0.44l0.65,0l0,-1.17l0.95,-0.25l0,1.42l1.06,0l0,0.44l-1.06,0l0,2.73c0,0.26 0.09,0.45 0.29,0.56c0.16,0.09 0.42,0.14 0.77,0.15l0,0.36l0,0l-0.01,0z" fill="#646464" id="path50"/>
   <path d="m51.88,15.77l-0.95,0l0,-2.69c0,-0.28 -0.08,-0.51 -0.25,-0.71c-0.2,-0.23 -0.47,-0.33 -0.83,-0.33c-0.43,0 -0.97,0.17 -1.62,0.51l0,3.24l-0.95,0l0,-6.45l0.95,-0.22l0,2.94c0.6,-0.32 1.26,-0.49 1.97,-0.49c0.5,0 0.9,0.12 1.21,0.37c0.31,0.25 0.46,0.56 0.46,0.93l0,2.92l0,0l0,0l0,-0.02z" fill="#646464" id="path52"/>
   <path d="m56.88,13.6c0,-0.44 -0.12,-0.8 -0.33,-1.08c-0.27,-0.35 -0.68,-0.53 -1.23,-0.55c-1.04,0.04 -1.55,0.59 -1.55,1.64c0,0.48 0.1,0.89 0.32,1.21c0.28,0.41 0.69,0.61 1.25,0.61c1.04,-0.01 1.56,-0.61 1.56,-1.82l0,0l-0.01,0zm1.03,0.01c0,0.62 -0.22,1.14 -0.65,1.56c-0.47,0.46 -1.13,0.7 -1.96,0.7c-0.83,0 -1.47,-0.23 -1.94,-0.7c-0.42,-0.41 -0.63,-0.94 -0.63,-1.56c0,-0.59 0.23,-1.08 0.68,-1.48c0.48,-0.43 1.12,-0.64 1.89,-0.64c0.78,0 1.42,0.21 1.9,0.64c0.45,0.4 0.68,0.9 0.68,1.48l0.02,0z" fill="#646464" id="path54"/>
   <path d="m63.31,15.77l-0.95,0l0,-2.85c0,-0.32 -0.13,-0.56 -0.38,-0.74c-0.25,-0.18 -0.59,-0.26 -1.02,-0.25c-0.45,0.01 -0.88,0.11 -1.28,0.32l0,3.51l-0.95,0l0,-3.6c0.54,-0.29 1.04,-0.49 1.5,-0.57c0.43,-0.08 0.81,-0.12 1.13,-0.12c0.22,0 0.44,0.02 0.63,0.05c0.37,0.06 0.67,0.18 0.9,0.36c0.25,0.19 0.39,0.42 0.39,0.69l0,3.2l-0.01,0l0.02,0z" fill="#646464" id="path56"/>
   <path d="m22.53,9.35c-0.48,0 -0.95,0.03 -1.35,0.09c-1.2,0.15 -1.42,0.49 -1.42,1.09l0,0.8l2.84,0l0,0.27l-2.84,0l-1.06,0c-0.82,0 -1.55,0.37 -1.77,1.07c-0.25,0.8 -0.28,1.3 0,2.14c0.21,0.62 0.68,1.07 1.51,1.07l0.97,0l0,-0.96c0,-0.7 0.81,-1.3 1.77,-1.3l2.83,0c0.78,0 1.42,-0.48 1.42,-1.07l0,-2.01c0,-0.57 -0.65,-1 -1.42,-1.09c-0.48,-0.06 -0.99,-0.09 -1.48,-0.09l0,0zm-1.53,0.65c0.29,0 0.53,0.18 0.53,0.4c0,0.22 -0.24,0.4 -0.53,0.4c-0.29,0 -0.53,-0.18 -0.53,-0.4c0,-0.22 0.24,-0.4 0.53,-0.4z" fill="url(#linearGradient1478)" id="path1948"/>
   <path d="m25.77,11.6l0,0.94c0,0.72 -0.83,1.33 -1.77,1.33l-2.83,0c-0.77,0 -1.42,0.49 -1.42,1.07l0,2.01c0,0.57 0.67,0.91 1.42,1.07c0.9,0.19 1.75,0.23 2.83,0c0.72,-0.15 1.42,-0.46 1.42,-1.07l0,-0.8l-2.83,0l0,-0.27l2.83,0l1.42,0c0.82,0 1.13,-0.43 1.42,-1.07c0.3,-0.66 0.29,-1.29 0,-2.14c-0.21,-0.61 -0.59,-1.07 -1.42,-1.07l-1.06,0l0,0l-0.01,-0.01zm-1.59,5.07c0.29,0 0.53,0.18 0.53,0.4c0,0.22 -0.24,0.4 -0.53,0.4c-0.29,0 -0.53,-0.18 -0.53,-0.4c0,-0.22 0.24,-0.4 0.53,-0.4z" fill="url(#linearGradient1475)" id="path1950"/>
   <path d="m65.15,10.96l0.17,0l0,-0.77l0.39,0l0,-0.09l-0.95,0l0,0.09l0.39,0l0,0.77m0.7,0l0.14,0l0,-0.7l0.31,0.7l0.16,0l0.32,-0.7l0,0.7l0.15,0l0,-0.86l-0.21,0l-0.35,0.74l-0.3,-0.74l-0.23,0l0,0.86" fill="#646464" id="text3004" stroke-width="1px"/>
   <path d="m26.43,19.37a3.8,0.54 0 1 1 -7.6,0a3.8,0.54 0 1 1 7.6,0z" fill="url(#radialGradient1480)" fill-rule="nonzero" id="path1894" opacity="0.44" stroke-miterlimit="4" stroke-width="20"/>
  </g>
 </g>
</svg>