<?xml version="1.0" encoding="UTF-8" standalone="no"?><!-- Generator: Gravit.io --><svg xmlns="http://www.w3.org/2000/svg" xmlns:xlink="http://www.w3.org/1999/xlink" style="isolation:isolate" viewBox="0 0 400 100" width="400pt" height="100pt"><defs><clipPath id="_clipPath_8TYKdfjGrJwqcjr7yW9UaMQVc34ARv2E"><rect width="400" height="100"/></clipPath></defs><g clip-path="url(#_clipPath_8TYKdfjGrJwqcjr7yW9UaMQVc34ARv2E)"><rect width="400" height="100" style="fill:rgb(0,0,0)" fill-opacity="0"/><g><g><path d=" M -24.342 -7 L 421.947 -4.65 L 421.289 120.311 L -25 117.961 L -24.342 -7 Z " fill="none"/><path d=" M 101.525 68.301 C 102.865 68.308 103.962 68.215 104.815 68.026 C 105.709 67.795 106.421 67.507 106.951 67.159 C 107.482 66.772 107.848 66.325 108.056 65.82 C 108.261 65.314 108.364 64.748 108.368 64.124 C 108.375 62.797 107.731 61.702 106.437 60.837 C 105.143 59.932 102.914 58.966 99.751 57.936 C 98.372 57.46 96.995 56.925 95.617 56.334 C 94.239 55.701 93.005 54.934 91.913 54.031 C 90.822 53.09 89.935 51.974 89.251 50.682 C 88.567 49.352 88.231 47.75 88.241 45.879 C 88.251 44.007 88.623 42.331 89.363 40.853 C 90.101 39.335 91.143 38.053 92.489 37.008 C 93.835 35.96 95.465 35.171 97.376 34.634 C 99.288 34.058 101.441 33.777 103.838 33.79 C 106.679 33.805 109.136 34.11 111.203 34.707 C 113.272 35.302 114.975 35.956 116.312 36.664 L 116.312 36.664 L 113.532 43.848 C 112.357 43.255 111.041 42.741 109.581 42.304 C 108.16 41.83 106.436 41.585 104.405 41.575 C 102.132 41.563 100.485 41.866 99.466 42.486 C 98.489 43.065 97.996 43.98 97.99 45.228 C 97.986 45.969 98.165 46.593 98.529 47.103 C 98.892 47.613 99.398 48.084 100.045 48.517 C 100.733 48.91 101.503 49.285 102.353 49.64 C 103.245 49.956 104.217 50.293 105.272 50.649 C 107.46 51.441 109.365 52.231 110.987 53.02 C 112.606 53.769 113.942 54.654 114.993 55.673 C 116.084 56.695 116.889 57.889 117.411 59.256 C 117.931 60.625 118.186 62.284 118.176 64.235 C 118.156 68.018 116.759 70.957 113.987 73.047 C 111.215 75.101 107.047 76.112 101.484 76.082 C 99.614 76.073 97.93 75.948 96.428 75.705 C 94.927 75.503 93.589 75.241 92.411 74.923 C 91.278 74.606 90.284 74.269 89.433 73.914 C 88.622 73.559 87.933 73.222 87.366 72.907 L 87.366 72.907 L 90.085 65.667 C 91.341 66.336 92.88 66.948 94.706 67.504 C 96.571 68.022 98.844 68.287 101.525 68.301 Z " fill="rgb(126,86,194)"/><path d=" M 133.517 55.128 C 133.507 57.118 133.739 58.912 134.219 60.514 C 134.738 62.117 135.463 63.506 136.389 64.682 C 137.36 65.818 138.532 66.702 139.91 67.333 C 141.286 67.963 142.869 68.285 144.656 68.295 C 146.401 68.304 147.968 67.998 149.352 67.382 C 150.776 66.767 151.958 65.895 152.899 64.768 C 153.879 63.603 154.618 62.221 155.113 60.624 C 155.651 59.028 155.924 57.236 155.934 55.246 C 155.945 53.256 155.691 51.462 155.169 49.859 C 154.692 48.218 153.967 46.83 152.999 45.692 C 152.07 44.517 150.898 43.615 149.481 42.982 C 148.103 42.352 146.54 42.032 144.794 42.023 C 143.007 42.013 141.421 42.336 140.038 42.991 C 138.653 43.61 137.472 44.499 136.49 45.664 C 135.551 46.79 134.811 48.172 134.275 49.808 C 133.779 51.405 133.528 53.178 133.517 55.128 Z  M 165.74 55.298 C 165.725 58.146 165.348 60.717 164.604 63.015 C 163.862 65.275 162.816 67.259 161.467 68.967 C 160.157 70.677 158.587 72.092 156.753 73.214 C 154.918 74.335 152.905 75.144 150.71 75.64 C 150.909 76.421 151.352 77.047 152.04 77.519 C 152.726 78.03 153.598 78.444 154.653 78.762 C 155.706 79.079 156.923 79.321 158.304 79.483 C 159.724 79.647 161.247 79.792 162.869 79.916 L 162.869 79.916 L 160.886 86.576 C 157.718 86.444 155 86.116 152.728 85.599 C 150.497 85.118 148.591 84.446 147.012 83.579 C 145.473 82.712 144.241 81.653 143.313 80.4 C 142.426 79.146 141.743 77.7 141.265 76.059 C 138.748 75.734 136.418 75.057 134.27 74.032 C 132.122 72.968 130.262 71.553 128.687 69.79 C 127.112 68.026 125.886 65.914 125.005 63.451 C 124.125 60.989 123.693 58.197 123.709 55.076 C 123.727 51.605 124.312 48.566 125.463 45.957 C 126.613 43.311 128.148 41.096 130.066 39.311 C 132.026 37.527 134.267 36.192 136.788 35.31 C 139.351 34.426 142.034 33.991 144.836 34.006 C 147.719 34.021 150.439 34.484 152.992 35.395 C 155.546 36.304 157.772 37.663 159.672 39.466 C 161.571 41.272 163.061 43.503 164.145 46.161 C 165.228 48.781 165.759 51.826 165.74 55.298 Z " fill="rgb(126,86,194)"/><path d=" M 201.742 67.95 L 201.701 75.791 L 173.496 75.642 L 173.709 35.095 L 183.213 35.145 L 183.04 67.852 L 201.742 67.95 Z " fill="rgb(126,86,194)"/><path d=" M 219.779 35.337 C 220.504 36.627 221.328 38.231 222.251 40.149 C 223.217 42.026 224.2 44.08 225.204 46.308 C 226.249 48.497 227.273 50.747 228.276 53.053 C 229.279 55.36 230.222 57.529 231.105 59.562 C 232.009 57.538 232.975 55.379 234.001 53.083 C 235.028 50.788 236.055 48.548 237.082 46.37 C 238.151 44.153 239.155 42.11 240.1 40.243 C 241.084 38.335 241.947 36.74 242.684 35.458 L 242.684 35.458 L 251.335 35.504 C 251.726 38.197 252.076 41.221 252.383 44.579 C 252.73 47.895 253.017 51.368 253.242 54.998 C 253.508 58.588 253.731 62.198 253.917 65.826 C 254.14 69.455 254.326 72.869 254.471 76.069 L 254.471 76.069 L 245.212 76.02 C 245.11 72.079 244.972 67.788 244.791 63.145 C 244.613 58.502 244.333 53.82 243.952 49.098 C 243.214 50.733 242.391 52.541 241.487 54.526 C 240.583 56.511 239.679 58.496 238.775 60.481 C 237.913 62.466 237.068 64.373 236.248 66.201 C 235.426 67.992 234.727 69.529 234.151 70.812 L 234.151 70.812 L 227.511 70.777 C 226.949 69.488 226.269 67.944 225.466 66.144 C 224.662 64.307 223.82 62.392 222.937 60.397 C 222.094 58.403 221.232 56.409 220.35 54.415 C 219.467 52.421 218.663 50.603 217.942 48.961 C 217.51 53.679 217.18 58.358 216.953 62.998 C 216.726 67.639 216.54 71.929 216.399 75.868 L 216.399 75.868 L 207.138 75.819 C 207.318 72.621 207.519 69.21 207.741 65.582 C 208.004 61.958 208.267 58.35 208.53 54.762 C 208.832 51.136 209.156 47.666 209.498 44.353 C 209.882 40.999 210.283 37.979 210.703 35.29 L 210.703 35.29 L 219.779 35.337 Z " fill="rgb(126,86,194)"/><path d=" M 292.411 60.822 C 292.398 63.241 292.022 65.462 291.279 67.487 C 290.539 69.472 289.473 71.182 288.084 72.619 C 286.697 74.015 285.026 75.098 283.072 75.868 C 281.159 76.638 279.006 77.017 276.609 77.005 C 274.253 76.992 272.102 76.591 270.158 75.8 C 268.253 75.01 266.614 73.91 265.242 72.499 C 263.868 71.047 262.8 69.326 262.039 67.333 C 261.279 65.3 260.905 63.075 260.917 60.656 C 260.93 58.237 261.328 56.036 262.109 54.051 C 262.933 52.066 264.038 50.374 265.427 48.978 C 266.855 47.58 268.526 46.497 270.439 45.727 C 272.391 44.957 274.505 44.578 276.78 44.59 C 279.094 44.602 281.203 45.003 283.108 45.793 C 285.054 46.584 286.714 47.684 288.088 49.097 C 289.46 50.508 290.527 52.211 291.288 54.205 C 292.049 56.198 292.423 58.403 292.411 60.822 Z  M 283.151 60.773 C 283.165 58.082 282.608 55.972 281.478 54.445 C 280.39 52.879 278.81 52.09 276.74 52.079 C 274.67 52.069 273.06 52.84 271.916 54.395 C 270.771 55.91 270.191 58.014 270.177 60.705 C 270.162 63.396 270.72 65.544 271.849 67.149 C 272.976 68.715 274.578 69.504 276.648 69.515 C 278.718 69.526 280.307 68.754 281.411 67.199 C 282.557 65.606 283.137 63.465 283.151 60.773 Z " fill="rgb(126,86,194)"/><path d=" M 307.18 60.723 C 307.165 63.415 307.784 65.584 309.035 67.229 C 310.283 68.873 312.149 69.702 314.624 69.715 C 315.437 69.719 316.189 69.703 316.88 69.67 C 317.571 69.595 318.138 69.52 318.585 69.444 L 318.585 69.444 L 318.669 53.588 C 318.104 53.232 317.354 52.936 316.42 52.698 C 315.528 52.458 314.616 52.338 313.681 52.333 C 309.377 52.31 307.209 55.108 307.18 60.723 Z  M 327.632 75.46 C 326.818 75.689 325.882 75.919 324.826 76.147 C 323.768 76.338 322.652 76.506 321.472 76.657 C 320.334 76.805 319.156 76.917 317.938 76.989 C 316.758 77.1 315.622 77.151 314.524 77.145 C 311.885 77.131 309.531 76.749 307.465 75.997 C 305.397 75.245 303.657 74.183 302.243 72.809 C 300.828 71.399 299.74 69.715 298.979 67.76 C 298.26 65.767 297.905 63.542 297.918 61.084 C 297.931 58.589 298.268 56.346 298.928 54.36 C 299.588 52.335 300.532 50.625 301.757 49.226 C 302.983 47.829 304.47 46.764 306.222 46.033 C 308.013 45.301 310.045 44.939 312.318 44.951 C 313.578 44.958 314.693 45.081 315.668 45.322 C 316.682 45.56 317.696 45.897 318.707 46.332 L 318.707 46.332 L 318.78 32.407 L 327.866 31.049 L 327.632 75.46 Z " fill="rgb(126,86,194)"/><path d=" M 334.682 61.337 C 334.697 58.606 335.136 56.229 335.999 54.205 C 336.903 52.141 338.07 50.432 339.498 49.074 C 340.928 47.717 342.557 46.69 344.389 45.998 C 346.26 45.306 348.171 44.966 350.119 44.976 C 354.669 45 358.255 46.363 360.88 49.071 C 363.507 51.737 364.805 55.664 364.777 60.852 C 364.775 61.358 364.752 61.924 364.708 62.547 C 364.665 63.133 364.621 63.658 364.577 64.127 L 364.577 64.127 L 343.989 64.018 C 344.182 65.815 345.048 67.242 346.585 68.303 C 348.123 69.366 350.192 69.902 352.79 69.916 C 354.455 69.925 356.081 69.798 357.667 69.532 C 359.292 69.229 360.614 68.865 361.632 68.441 L 361.632 68.441 L 362.813 75.528 C 362.324 75.76 361.673 75.99 360.859 76.219 C 360.045 76.45 359.131 76.639 358.115 76.791 C 357.139 76.98 356.082 77.131 354.946 77.243 C 353.808 77.352 352.67 77.405 351.532 77.399 C 348.649 77.384 346.135 76.961 343.986 76.13 C 341.879 75.3 340.117 74.179 338.704 72.768 C 337.33 71.318 336.304 69.615 335.623 67.661 C 334.984 65.708 334.67 63.599 334.682 61.337 Z  M 356.021 58.113 C 355.983 57.372 355.845 56.65 355.605 55.947 C 355.406 55.244 355.065 54.617 354.58 54.069 C 354.136 53.52 353.55 53.068 352.819 52.713 C 352.133 52.359 351.26 52.18 350.203 52.174 C 349.187 52.169 348.315 52.339 347.581 52.686 C 346.849 52.993 346.237 53.419 345.748 53.964 C 345.257 54.508 344.868 55.149 344.578 55.889 C 344.333 56.589 344.146 57.309 344.02 58.05 L 356.021 58.113 Z " fill="rgb(126,86,194)"/><path d=" M 384.489 77.339 C 381.85 77.286 379.698 77.003 378.036 76.486 C 376.413 75.97 375.118 75.261 374.149 74.358 C 373.219 73.419 372.575 72.304 372.216 71.014 C 371.898 69.685 371.745 68.202 371.754 66.564 L 371.754 66.564 L 371.932 32.687 L 381.016 31.329 L 380.839 64.857 C 380.835 65.637 380.892 66.339 381.011 66.963 C 381.13 67.589 381.349 68.116 381.672 68.547 C 382.035 68.978 382.541 69.331 383.189 69.609 C 383.837 69.885 384.71 70.064 385.806 70.148 L 385.806 70.148 L 384.489 77.339 Z " fill="rgb(126,86,194)"/><path d=" M 11.146 32.761 L 69.072 33.066 L 68.864 72.685 L 10.938 72.38 L 11.146 32.761 Z " fill="rgb(255,255,255)"/><path d=" M 39.896 50.665 C 23.94 50.598 11.027 53.766 11.015 57.752 L 11.015 57.752 L 10.938 72.223 C 10.909 76.222 23.864 79.533 39.866 79.617 C 55.867 79.699 68.852 76.527 68.865 72.528 L 68.865 72.528 L 68.941 58.057 C 68.971 54.06 56.019 50.749 40.018 50.665 L 40.018 50.665 L 39.896 50.665 Z " fill="rgb(126,86,194)"/><path d=" M 68.946 57.412 C 68.967 53.415 56.016 50.107 40.021 50.022 C 24.024 49.938 11.039 53.11 11.018 57.107 C 10.997 61.103 23.948 64.412 39.945 64.496 C 55.94 64.58 68.925 61.408 68.946 57.412 Z " fill="rgb(255,255,255)"/><path d=" M 39.998 31.255 C 24.042 31.186 11.129 34.356 11.115 38.342 L 11.115 38.342 L 11.038 52.814 C 11.011 56.812 23.964 60.121 39.968 60.205 C 55.969 60.29 68.954 57.115 68.967 53.119 L 68.967 53.119 L 69.043 38.647 C 69.073 34.651 56.122 31.34 40.12 31.255 L 40.12 31.255 L 39.998 31.255 Z " fill="rgb(126,86,194)"/><path d=" M 69.049 38.002 C 69.07 34.006 56.119 30.697 40.121 30.613 C 24.126 30.528 11.141 33.7 11.12 37.697 C 11.099 41.694 24.05 45.002 40.045 45.087 C 56.042 45.171 69.027 41.999 69.049 38.002 Z " fill="rgb(255,255,255)"/><path d=" M 69.075 33.066 C 69.096 29.07 56.145 25.761 40.147 25.677 C 24.152 25.593 11.167 28.765 11.146 32.761 C 11.125 36.758 24.076 40.067 40.071 40.151 C 56.068 40.235 69.053 37.063 69.075 33.066 Z " fill="rgb(126,86,194)"/><path d=" M 62.986 50.786 C 62.975 53.004 61.093 54.792 58.783 54.78 C 56.473 54.768 54.611 52.96 54.623 50.742 C 54.634 48.524 56.516 46.736 58.826 46.748 C 61.135 46.76 62.998 48.568 62.986 50.786 Z " fill="rgb(255,255,255)"/><path d=" M 62.884 70.189 C 62.872 72.408 60.991 74.196 58.681 74.183 C 56.371 74.171 54.509 72.364 54.52 70.145 C 54.532 67.927 56.414 66.137 58.723 66.149 C 61.033 66.161 62.896 67.971 62.884 70.189 Z " fill="rgb(255,255,255)"/></g></g></g></svg>